<svg width="256" height="256" viewBox="0 0 256 256" fill="none" xmlns="http://www.w3.org/2000/svg">
<rect width="256" height="256" fill="#5865F2"/>
<path d="M157.145 201.5H61.4C58.79 201.5 56.66 199.385 56.66 196.76V169.835C56.66 147.425 70.07 128.435 89.36 120.74C87.275 119.36 85.31 117.755 83.51 115.91C76.835 109.13 73.16 100.1 73.16 90.485C73.16 80.885 76.835 71.87 83.51 65.06C90.2 58.25 99.11 54.5 108.59 54.5C118.07 54.5 126.98 58.25 133.685 65.075C140.36 71.87 144.035 80.9 144.035 90.5C144.035 100.1 140.36 109.115 133.685 115.925C131.885 117.755 129.935 119.36 127.85 120.74C132.395 122.24 136.775 124.16 139.805 126.44C141.89 128.015 142.31 130.985 140.735 133.07C139.16 135.155 136.19 135.575 134.105 134C129.005 130.16 115.49 126.695 109.685 126.56C108.965 126.545 108.215 126.545 107.465 126.56C84.305 127.16 66.14 146.165 66.14 169.835V192.035H157.16C159.77 192.035 161.9 194.15 161.9 196.775C161.885 199.385 159.77 201.5 157.145 201.5ZM108.59 63.965C101.675 63.965 95.165 66.71 90.26 71.705C85.34 76.715 82.625 83.39 82.625 90.485C82.625 97.595 85.34 104.27 90.26 109.265C95.165 114.26 101.675 117.005 108.605 117.005C115.52 117.005 122.03 114.26 126.935 109.265C131.855 104.255 134.57 97.58 134.57 90.485C134.57 83.39 131.855 76.715 126.935 71.705C122.03 66.725 115.52 63.965 108.59 63.965Z" fill="white"/>
<path d="M191.09 143.945V129.185C191.09 121.745 182.48 116.135 171.08 116.135C159.665 116.135 151.07 121.745 151.07 129.185V143.945C146.06 147.785 142.835 153.815 142.835 160.595V172.775C142.835 180.275 148.94 186.395 156.455 186.395H185.72C193.22 186.395 199.34 180.29 199.34 172.775V160.595C199.34 153.83 196.1 147.785 191.09 143.945ZM160.55 129.2C160.73 128.33 164.225 125.6 171.095 125.6C177.95 125.6 181.46 128.33 181.64 129.185V139.88C180.575 139.715 179.48 139.625 178.37 139.625H163.82C162.71 139.625 161.615 139.715 160.55 139.88V129.2ZM189.86 172.775C189.86 175.055 188 176.915 185.72 176.915H156.455C154.175 176.915 152.315 175.055 152.315 172.775V160.595C152.315 154.25 157.475 149.09 163.82 149.09H178.37C184.715 149.09 189.875 154.25 189.875 160.595V172.775H189.86Z" fill="white"/>
<path d="M175.535 167.3H166.64C164.03 167.3 161.9 165.185 161.9 162.56C161.9 159.95 164.015 157.82 166.64 157.82H175.535C178.145 157.82 180.275 159.935 180.275 162.56C180.275 165.17 178.145 167.3 175.535 167.3Z" fill="white"/>
</svg>
